<svg xmlns="http://www.w3.org/2000/svg" width="16" height="17" viewBox="0 0 16 17">
    <g fill="none" fill-rule="evenodd">
        <g fill="#EE1C50" fill-rule="nonzero">
            <g>
                <g>
                    <g>
                        <path d="M14.107 1c1.045.001 1.892.865 1.893 1.93v9.737c-.001 1.066-.848 1.93-1.893 1.93H9.609l2.196 2.24c.257.265.256.694-.003.958-.26.264-.68.265-.94.003L8 14.879l-2.862 2.919c-.168.173-.414.242-.645.18-.232-.063-.412-.248-.474-.483-.061-.236.006-.487.176-.659l2.196-2.238H1.893C.848 14.596.001 13.733 0 12.667V2.93C.001 1.865.848 1 1.893 1zm0 1.36H1.893c-.309 0-.56.256-.56.57v9.737c0 .315.251.57.56.57h12.214c.309 0 .56-.255.56-.57V2.93c0-.315-.251-.57-.56-.571zM12 3.72c.177 0 .346.071.471.199.125.127.196.3.196.48v6.8c0 .375-.299.68-.667.68-.368 0-.667-.305-.667-.68v-6.8c0-.18.07-.353.196-.48.125-.128.294-.2.471-.2zM8 6.44c.177 0 .346.07.471.198s.196.3.196.48v4.08c0 .376-.299.68-.667.68-.368 0-.667-.304-.667-.68v-4.08c0-.18.07-.352.196-.48.125-.127.294-.199.471-.199zM4 8.478c.177 0 .346.071.471.199.125.127.196.3.196.48v2.04c0 .376-.299.68-.667.68-.368 0-.667-.304-.667-.68v-2.04c0-.18.07-.353.196-.48.125-.128.294-.2.471-.2z" transform="translate(-867 -8396) translate(0 7571) translate(120 526) translate(747 298)"/>
                    </g>
                </g>
            </g>
        </g>
    </g>
</svg>
