<svg xmlns="http://www.w3.org/2000/svg" width="52" height="52" viewBox="0 0 52 52">
    <g fill="none" fill-rule="evenodd">
        <g fill="#EE1C50">
            <g>
                <g>
                    <g>
                        <g>
                            <path d="M40.975 52h-29.95C4.936 52 0 47.064 0 40.975v-29.95C0 4.936 4.936 0 11.025 0h29.95C47.064 0 52 4.936 52 11.025v29.95C52 47.064 47.064 52 40.975 52" opacity=".1" transform="translate(-975 -3361) translate(188 3173) translate(71 174) translate(702) translate(14 14)"/>
                            <path fill-rule="nonzero" d="M20.09 25v12.833c0 .645-.528 1.167-1.18 1.167h-4.728C13.529 39 13 38.478 13 37.833V25c0-.644.53-1.167 1.182-1.167h4.727c.653 0 1.182.523 1.182 1.167zm17.728-5.833h-4.727c-.653 0-1.182.522-1.182 1.166v17.5c0 .645.53 1.167 1.182 1.167h4.727c.653 0 1.182-.522 1.182-1.167v-17.5c0-.644-.53-1.166-1.182-1.166zM28.364 11h-4.728c-.652 0-1.181.522-1.181 1.167v25.666c0 .645.529 1.167 1.181 1.167h4.728c.652 0 1.181-.522 1.181-1.167V12.167c0-.645-.529-1.167-1.181-1.167z" transform="translate(-975 -3361) translate(188 3173) translate(71 174) translate(702) translate(14 14)"/>
                        </g>
                    </g>
                </g>
            </g>
        </g>
    </g>
</svg>
