<svg xmlns="http://www.w3.org/2000/svg" width="720" height="484" viewBox="0 0 720 484">
    <defs>
        <linearGradient id="3e3c1t9cpa" x1="-.018%" x2="99.982%" y1="49.969%" y2="49.969%">
            <stop offset="41%" stop-color="#B4CCFC"/>
            <stop offset="46%" stop-color="#ADC7FB"/>
            <stop offset="54%" stop-color="#9AB9F9"/>
            <stop offset="63%" stop-color="#7CA1F5"/>
            <stop offset="63%" stop-color="#7BA1F5"/>
        </linearGradient>
        <linearGradient id="1a5upmjvtb" x1="38.101%" x2="138.06%" y1="50.005%" y2="50.005%">
            <stop offset="50%" stop-color="#B4CCFC"/>
            <stop offset="53%" stop-color="#ADC7FB"/>
            <stop offset="57%" stop-color="#9AB9F9"/>
            <stop offset="63%" stop-color="#7CA1F5"/>
            <stop offset="63%" stop-color="#7BA1F5"/>
        </linearGradient>
        <linearGradient id="3y2na6x3rc" x1="-.021%" x2="99.915%" y1="50.002%" y2="50.002%">
            <stop offset="41%" stop-color="#B4CCFC"/>
            <stop offset="46%" stop-color="#ADC7FB"/>
            <stop offset="54%" stop-color="#9AB9F9"/>
            <stop offset="63%" stop-color="#7CA1F5"/>
            <stop offset="63%" stop-color="#7BA1F5"/>
        </linearGradient>
        <linearGradient id="kfcrsiushd" x1="102.775%" x2="-.591%" y1="49.952%" y2="49.952%">
            <stop offset="42%" stop-color="#EAEAF9"/>
            <stop offset="45%" stop-color="#E3E5F8"/>
            <stop offset="49%" stop-color="#D0D5F4"/>
            <stop offset="53%" stop-color="#B1BDEE"/>
            <stop offset="58%" stop-color="#879AE5"/>
            <stop offset="61%" stop-color="#6D86E0"/>
        </linearGradient>
        <linearGradient id="gk5gltgtye" x1="6.055%" x2="80.795%" y1="50.019%" y2="50.019%">
            <stop offset="41%" stop-color="#B4CCFC"/>
            <stop offset="46%" stop-color="#ADC7FB"/>
            <stop offset="54%" stop-color="#9AB9F9"/>
            <stop offset="63%" stop-color="#7CA1F5"/>
            <stop offset="63%" stop-color="#7BA1F5"/>
        </linearGradient>
        <linearGradient id="y226sa4b9f" x1="6.055%" x2="80.795%" y1="49.964%" y2="49.964%">
            <stop offset="41%" stop-color="#B4CCFC"/>
            <stop offset="46%" stop-color="#ADC7FB"/>
            <stop offset="54%" stop-color="#9AB9F9"/>
            <stop offset="63%" stop-color="#7CA1F5"/>
            <stop offset="63%" stop-color="#7BA1F5"/>
        </linearGradient>
        <linearGradient id="29rimw4ssg" x1="6.055%" x2="80.795%" y1="50.013%" y2="50.013%">
            <stop offset="41%" stop-color="#B4CCFC"/>
            <stop offset="46%" stop-color="#ADC7FB"/>
            <stop offset="54%" stop-color="#9AB9F9"/>
            <stop offset="63%" stop-color="#7CA1F5"/>
            <stop offset="63%" stop-color="#7BA1F5"/>
        </linearGradient>
        <linearGradient id="1c64snmmkh" x1="5.999%" x2="80.814%" y1="49.967%" y2="49.967%">
            <stop offset="41%" stop-color="#B4CCFC"/>
            <stop offset="46%" stop-color="#ADC7FB"/>
            <stop offset="54%" stop-color="#9AB9F9"/>
            <stop offset="63%" stop-color="#7CA1F5"/>
            <stop offset="63%" stop-color="#7BA1F5"/>
        </linearGradient>
        <linearGradient id="jx157yxnxi" x1="5.999%" x2="80.784%" y1="50.102%" y2="50.102%">
            <stop offset="41%" stop-color="#B4CCFC"/>
            <stop offset="46%" stop-color="#ADC7FB"/>
            <stop offset="54%" stop-color="#9AB9F9"/>
            <stop offset="63%" stop-color="#7CA1F5"/>
            <stop offset="63%" stop-color="#7BA1F5"/>
        </linearGradient>
        <linearGradient id="mp83e1anuj" x1="130.966%" x2="24.825%" y1="50.03%" y2="50.03%">
            <stop offset="41%" stop-color="#B4CCFC"/>
            <stop offset="46%" stop-color="#ADC7FB"/>
            <stop offset="54%" stop-color="#9AB9F9"/>
            <stop offset="63%" stop-color="#7CA1F5"/>
            <stop offset="63%" stop-color="#7BA1F5"/>
        </linearGradient>
    </defs>
    <g fill="none" fill-rule="evenodd">
        <g fill-rule="nonzero">
            <g>
                <path fill="url(#3e3c1t9cpa)" d="M321.35 463.012c-7.963 4.604-17.778 4.604-25.74 0L31.987 308.323V322.828c.007 3.594 1.933 6.91 5.05 8.697L291.72 477.381c10.402 5.943 23.171 5.943 33.574 0l153.256-87.594.217-19.745-157.417 92.97z" transform="translate(-666 -200) translate(666 200)"/>
                <path fill="#F0F0FC" d="M320.864 463.282l155.31-88.864c1.496-.857 2.42-2.449 2.42-4.173 0-1.725-.924-3.317-2.42-4.173L207.853 212.518c-3.55-2.024-7.904-2.024-11.453 0l-162.035 92.7c-1.497.856-2.42 2.448-2.42 4.172 0 1.725.923 3.317 2.42 4.173l261.65 149.692c7.693 4.409 17.145 4.419 24.849.027z" transform="translate(-666 -200) translate(666 200)"/>
                <path fill="#CCDBEA" d="M411.7 351.135c2.726 1.377 5.944 1.377 8.67 0 2.377-1.405 2.404-3.62 0-4.997-2.723-1.39-5.947-1.39-8.67 0-1.013.416-1.675 1.403-1.675 2.498 0 1.096.662 2.083 1.675 2.499zM423.773 358.05c2.727 1.376 5.945 1.376 8.67 0 1.014-.417 1.675-1.404 1.675-2.499 0-1.095-.661-2.082-1.674-2.498-2.726-1.377-5.944-1.377-8.67 0-2.296 1.404-2.296 3.646 0 4.996zM435.847 365.018c2.73 1.364 5.941 1.364 8.67 0 2.377-1.377 2.404-3.62 0-4.97-2.726-1.377-5.944-1.377-8.67 0-.996.425-1.642 1.403-1.642 2.485 0 1.083.646 2.06 1.642 2.485z" transform="translate(-666 -200) translate(666 200)"/>
                <path fill="#CBD3EF" d="M150.915 362.695l50.536 29.09c5.645 3.269 15.531 2.864 22.068-.918l18.529-10.642c6.536-3.781 7.238-9.454 1.566-12.722l-50.51-29.09c-5.671-3.241-15.557-2.836-22.094.918l-18.502 10.804c-6.536 3.7-7.266 9.319-1.593 12.56z" transform="translate(-666 -200) translate(666 200)"/>
                <path fill="url(#1a5upmjvtb)" d="M546.184 163.818c-2.494-7.39-7.763-13.52-14.693-17.098L284.13 15.91c-4.291-2.254-9.317-2.654-13.91-1.108l-10.427 3.511 86.218 40.84v-.324L526.98 157.01c7.653 4.247 11.447 13.147 9.21 21.609l-52.589 191.935c6.44-2.915 11.242-8.55 13.1-15.369l49.754-182.023c.777-3.08.683-6.315-.27-9.345z" transform="translate(-666 -200) translate(666 200)"/>
                <path fill="#CBD3EF" d="M194.131 251.899L176.71 241.878 194.05 231.911 211.445 241.959zM214.848 263.81L197.427 253.789 214.74 243.85 232.189 253.87zM235.565 275.749L218.17 265.701 235.484 255.761 252.906 265.809zM256.309 287.687L238.887 277.694 256.201 267.673 273.623 277.721zM277.026 299.599L259.604 289.605 276.891 279.638 294.34 289.605zM297.743 311.538L280.294 301.49 297.608 291.55 315.057 301.571zM318.433 323.449L301.038 313.455 318.352 303.462 335.747 313.509zM339.177 335.388L321.755 325.367 339.042 315.4 356.491 325.421zM359.894 347.326L342.472 337.251 359.759 327.312 377.208 337.36zM380.611 359.238L363.189 349.217 380.503 339.25 397.897 349.271zM401.328 371.177L383.906 361.156 401.22 351.162 418.641 361.183zM422.072 383.088L404.623 373.067 421.91 363.1 439.358 373.094zM172.064 264.621L154.642 254.573 171.956 244.633 189.404 254.627zM192.781 276.532L175.359 266.511 192.7 256.544 210.094 266.592zM213.525 288.444L196.103 278.45 213.39 268.483 230.811 278.504zM234.242 300.382L216.793 290.361 234.107 280.395 251.555 290.415zM254.932 312.321L237.537 302.273 254.824 292.306 272.272 302.354zM275.649 324.232L258.254 314.212 275.541 304.245 292.989 314.293zM296.393 336.171L278.971 326.15 296.284 316.183 313.679 326.177zM317.082 348.083L299.661 338.089 317.001 328.095 334.396 338.143zM337.799 359.994L320.405 350 337.718 340.034 355.14 350.054zM358.543 371.933L341.122 361.912 358.435 351.945 375.83 361.966zM379.26 383.871L361.839 373.824 379.152 363.857 396.574 373.905zM399.95 395.81L382.556 385.762 399.869 375.795 417.291 385.816zM149.213 277.775L131.791 267.754 149.105 257.787 166.527 267.808zM169.93 289.713L152.508 279.665 169.822 269.699 187.244 279.719zM190.647 301.625L173.198 291.604 190.539 281.637 207.961 291.685zM211.364 313.563L193.942 303.543 211.256 293.576 228.678 303.57zM232.081 325.475L214.686 315.454 231.946 305.487 249.421 315.508zM252.798 337.414L235.376 327.393 252.69 317.399 270.138 327.447zM273.542 349.325L256.12 339.277 273.434 329.337 290.855 339.385zM294.232 361.237L276.81 351.243 294.124 341.249 311.572 351.297zM314.949 373.175L297.554 363.154 314.868 353.161 332.289 363.208zM335.666 385.114L318.271 375.066 335.558 365.099 353.006 375.12zM356.41 397.025L338.961 387.005 356.274 377.038 373.696 387.059zM377.127 408.937L359.705 398.943 377.018 388.949 394.413 398.997z" transform="translate(-666 -200) translate(666 200)"/>
                <path fill="#27317A" d="M248.854 29.711l-43.46 181.43L483.602 370.5l52.779-192.503c2.233-8.133-1.44-16.733-8.86-20.744L272.758 19.501c-4.443-2.47-9.778-2.746-14.452-.75-4.675 1.997-8.164 6.043-9.452 10.96z" transform="translate(-666 -200) translate(666 200)"/>
                <path fill="#FFF" d="M161.233 398.43l-8.968-5.159c-1.426-1.003-2.281-2.632-2.296-4.376 0-1.647 1.027-2.43 2.296-1.701l8.968 5.159c1.419.997 2.273 2.614 2.295 4.348 0 1.675-1.026 2.458-2.295 1.729z" transform="translate(-666 -200) translate(666 200)"/>
                <path fill="#6878D4" d="M715.89 264.053l-60.773-35.33c-6.018-3.468-13.429-3.468-19.447 0l-58.127 50.78 48.62 34.87h29.467l60.423-37.22c2.295-1.4 3.682-3.907 3.649-6.596-.034-2.688-1.482-5.16-3.811-6.504z" opacity=".2" transform="translate(-666 -200) translate(666 200)"/>
                <path fill="url(#3y2na6x3rc)" d="M687.449 105.827H560.068v172.38c-.005 1.626.86 3.13 2.269 3.943l53.615 30.981c4.886 2.834 10.915 2.834 15.801 0l53.319-30.792c1.428-.82 2.266-2.38 2.16-4.024h.325l-.108-172.488z" transform="translate(-666 -200) translate(666 200)"/>
                <path fill="#FFF" d="M615.952 140.913l-53.561-30.9c-1.405-.81-2.27-2.308-2.27-3.93 0-1.621.865-3.12 2.27-3.93l53.804-31.062c4.446-2.567 9.924-2.567 14.37 0l54.453 31.548c1.359.78 2.197 2.228 2.197 3.795 0 1.568-.838 3.015-2.197 3.795l-53.319 30.792c-4.897 2.758-10.888 2.716-15.747-.108z" transform="translate(-666 -200) translate(666 200)"/>
                <path fill="#3E477E" d="M618.491 129.218l-38.544-22.257c-1.016-.582-1.644-1.664-1.644-2.836s.628-2.254 1.644-2.836l38.706-22.392c3.214-1.836 7.159-1.836 10.372 0l39.246 22.662c.944.573 1.52 1.597 1.52 2.701s-.576 2.128-1.52 2.701l-38.435 22.176c-3.494 2.057-7.822 2.088-11.345.08z" transform="translate(-666 -200) translate(666 200)"/>
                <path fill="url(#kfcrsiushd)" d="M579.92 104.287l38.733-22.338c3.206-1.864 7.166-1.864 10.372 0l39.327 22.608c.479.262.872.656 1.135 1.135.437-.72.563-1.587.35-2.402-.214-.815-.75-1.508-1.485-1.92l-39.327-22.635c-3.213-1.836-7.158-1.836-10.372 0l-38.84 22.338c-1.548.895-2.099 2.86-1.243 4.43.313-.536.785-.96 1.35-1.216z" transform="translate(-666 -200) translate(666 200)"/>
                <path fill="#36399F" d="M609.82 271.886l-31.871-18.42c-2.452-1.403-3.967-4.01-3.97-6.834V140.697l-.406-.216c-.95-.563-2.131-.563-3.082 0-.95.562-1.519 1.597-1.483 2.701v106.961c0 2.826 1.502 5.438 3.944 6.86l31.872 18.422c1.278.728 2.822.823 4.18.258 1.358-.566 2.378-1.728 2.762-3.148-.688-.072-1.352-.293-1.945-.649z" transform="translate(-666 -200) translate(666 200)"/>
                <path fill="#27317A" d="M611.928 168.275c-.007-3.495-1.868-6.725-4.89-8.482l-33.06-19.096v105.935c.004 2.824 1.519 5.43 3.97 6.833l31.873 18.421c.6.328 1.263.521 1.945.568.11-.396.165-.805.162-1.216V168.275z" transform="translate(-666 -200) translate(666 200)"/>
                <path fill="#EE1C50" d="M582.81 244.093c-1.243-.941-1.973-2.411-1.971-3.97v-84.246c0-1.513.918-2.215 2.053-1.567 1.28.921 2.052 2.393 2.08 3.97v84.246c-.082 1.54-1 2.242-2.162 1.567z" transform="translate(-666 -200) translate(666 200)"/>
                <path fill="#FFF" d="M591.319 248.766c-1.254-.89-2.007-2.326-2.026-3.863v-55.344c0-1.486.891-2.188 2.026-1.54 1.237.901 1.977 2.332 1.999 3.863v55.344c0 1.485-.892 2.188-2 1.54z" transform="translate(-666 -200) translate(666 200)"/>
                <path fill="#EE1C50" d="M600.016 170.787c-1.107-.622-2.026 0-2.026 1.54v77.87c.032 1.534.782 2.964 2.026 3.863 1.108.648 2.026 0 2.026-1.54v-77.844c-.032-1.541-.781-2.98-2.026-3.89z" transform="translate(-666 -200) translate(666 200)"/>
                <path fill="#6878D4" d="M617.06 453.342l-35.87-20.825c-3.552-2.05-7.928-2.05-11.48 0l-45.917 26.524 40.515 23.985h17.368l35.654-21.959c1.326-.863 2.103-2.357 2.048-3.939-.055-1.581-.935-3.018-2.318-3.786z" opacity=".2" transform="translate(-666 -200) translate(666 200)"/>
                <path fill="url(#gk5gltgtye)" d="M607.012 434.462v22.391c-.032 1.122-.646 2.146-1.62 2.701l-38.058 22.149c-3.49 2.028-7.8 2.028-11.29 0l-38.058-21.96c-1.03-.583-1.63-1.71-1.54-2.89h-.432v-22.391h90.998z" transform="translate(-666 -200) translate(666 200)"/>
                <path fill="#FFF" d="M567.144 459.176l38.193-22.04c1.005-.579 1.624-1.65 1.624-2.81 0-1.159-.619-2.23-1.624-2.808l-38.382-22.176c-3.174-1.839-7.09-1.839-10.264 0l-38.867 22.446c-.958.563-1.546 1.59-1.546 2.7 0 1.111.588 2.139 1.546 2.702l38.057 21.986c3.482 2.024 7.782 2.024 11.263 0z" transform="translate(-666 -200) translate(666 200)"/>
                <path fill="#212D60" d="M571.898 465.389c-.829.595-1.33 1.545-1.35 2.566 0 .972.621 1.431 1.35.999l24.634-14.207v-3.674l-24.634 14.316zM600.016 449.155l-3.457 2v3.592l3.484-2.026c.868-.623 1.373-1.633 1.35-2.701-.026-.838-.648-1.297-1.377-.865z" transform="translate(-666 -200) translate(666 200)"/>
                <path fill="url(#y226sa4b9f)" d="M607.012 405.29v22.392c-.032 1.122-.646 2.145-1.62 2.701l-38.058 22.149c-3.49 2.028-7.8 2.028-11.29 0l-38.058-21.96c-1.03-.583-1.63-1.71-1.54-2.89h-.432v-22.391h90.998z" transform="translate(-666 -200) translate(666 200)"/>
                <path fill="#FFF" d="M567.144 429.897l38.193-22.04c1.005-.579 1.624-1.65 1.624-2.81 0-1.159-.619-2.23-1.624-2.809l-38.382-22.175c-3.174-1.84-7.09-1.84-10.264 0l-38.867 22.392c-.958.562-1.546 1.59-1.546 2.7 0 1.111.588 2.139 1.546 2.702l38.057 21.959c3.467 2.048 7.767 2.08 11.263.081z" transform="translate(-666 -200) translate(666 200)"/>
                <path fill="#212D60" d="M571.898 436.217c-.829.596-1.33 1.546-1.35 2.566 0 .973.621 1.432 1.35 1l24.634-14.208v-3.592l-24.634 14.234zM600.016 419.984l-3.457 1.999v3.592l3.484-2.025c.83-.595 1.33-1.546 1.35-2.566-.026-.973-.648-1.432-1.377-1z" transform="translate(-666 -200) translate(666 200)"/>
                <path fill="url(#29rimw4ssg)" d="M607.012 376.038v22.392c-.027 1.123-.642 2.15-1.62 2.701l-38.058 22.176c-3.498 2-7.793 2-11.29 0l-38.058-21.987c-1.036-.578-1.638-1.708-1.54-2.89h-.432v-22.392h90.998z" transform="translate(-666 -200) translate(666 200)"/>
                <path fill="#FFF" d="M567.144 400.672l38.193-22.068c1.005-.578 1.624-1.65 1.624-2.809 0-1.16-.619-2.23-1.624-2.809l-38.382-22.175c-3.181-1.812-7.082-1.812-10.264 0l-38.867 22.445c-.958.563-1.546 1.59-1.546 2.701 0 1.11.588 2.139 1.546 2.701l38.057 21.987c3.483 2.01 7.77 2.02 11.263.027z" transform="translate(-666 -200) translate(666 200)"/>
                <path fill="#212D60" d="M571.898 406.965c-.86.63-1.363 1.636-1.35 2.701 0 .973.621 1.432 1.35 1l24.634-14.208v-3.727l-24.634 14.234zM600.016 390.732l-3.457 1.999v3.592l3.484-2.026c.828-.583 1.33-1.526 1.35-2.539-.026-.999-.648-1.431-1.377-1.026z" transform="translate(-666 -200) translate(666 200)"/>
                <path fill="url(#29rimw4ssg)" d="M607.012 346.597v22.392c-.027 1.123-.642 2.149-1.62 2.7l-38.058 22.176c-3.498 2-7.793 2-11.29 0l-38.058-21.986c-1.036-.579-1.638-1.708-1.54-2.89h-.432v-22.392h90.998z" transform="translate(-666 -200) translate(666 200)"/>
                <path fill="#FFF" d="M567.144 371.23l38.193-22.067c1.005-.578 1.624-1.65 1.624-2.809 0-1.16-.619-2.23-1.624-2.81l-38.382-22.12c-3.174-1.84-7.09-1.84-10.264 0l-38.867 22.445c-.972.552-1.573 1.583-1.573 2.701s.6 2.15 1.573 2.701l38.057 21.987c3.493 1.992 7.78 1.982 11.263-.027z" transform="translate(-666 -200) translate(666 200)"/>
                <path fill="#212D60" d="M571.898 377.524c-.822.6-1.32 1.548-1.35 2.566 0 .972.621 1.431 1.35 1.026l24.634-14.234v-3.593l-24.634 14.235zM600.016 361.29l-3.457 2v3.592l3.484-2.026c.828-.584 1.33-1.526 1.35-2.539-.026-1-.648-1.431-1.377-1.026zM554.044 380.846c.063 1.099.645 2.101 1.567 2.701.837.486 1.54 0 1.54-.891-.057-1.093-.628-2.095-1.54-2.701-.864-.621-1.567-.216-1.567.891zM548.615 377.551c.048 1.096.621 2.101 1.54 2.701.864.486 1.54 0 1.54-.864-.04-1.099-.615-2.108-1.54-2.701-.837-.487-1.54-.108-1.54.864zM543.16 374.418c.053 1.1.637 2.107 1.566 2.7.837.487 1.54 0 1.54-.89-.048-1.096-.622-2.102-1.54-2.702-.864-.486-1.567-.08-1.567.892zM537.622 371.285c.065 1.09.634 2.089 1.54 2.7.864.487 1.54 0 1.54-.89-.053-1.095-.625-2.099-1.54-2.702-.73-.35-1.54-.08-1.54.892z" transform="translate(-666 -200) translate(666 200)"/>
                <path fill="#EE1C50" d="M532.22 368.151c.039 1.099.614 2.108 1.54 2.701.837.514 1.54 0 1.54-.864-.049-1.096-.622-2.101-1.54-2.701-.784-.513-1.54-.135-1.54.864zM526.818 364.991c.048 1.096.621 2.102 1.54 2.701.864.486 1.566 0 1.566-.891-.05-1.102-.634-2.11-1.566-2.701-.81-.486-1.54-.081-1.54.891zM521.416 361.939c.052 1.095.624 2.098 1.54 2.701.864.486 1.54 0 1.54-.891-.053-1.095-.625-2.099-1.54-2.701-.865-.568-1.54-.162-1.54.891z" transform="translate(-666 -200) translate(666 200)"/>
                <path fill="#212D60" d="M554.855 411.206c.052 1.094.624 2.098 1.54 2.7.864.487 1.539 0 1.539-.89-.052-1.095-.625-2.099-1.54-2.701-.864-.487-1.54-.082-1.54.89z" transform="translate(-666 -200) translate(666 200)"/>
                <path fill="#284CF9" d="M549.399 408.073c.05 1.102.634 2.11 1.566 2.7.838.514 1.54 0 1.54-.864-.057-1.093-.628-2.095-1.54-2.7-.864-.514-1.566-.136-1.566.864zM543.97 404.912c.047 1.096.62 2.102 1.54 2.701.863.487 1.539 0 1.539-.89-.04-1.1-.615-2.109-1.54-2.702-.837-.46-1.54-.08-1.54.891zM538.513 401.78c.054 1.1.638 2.107 1.567 2.7.837.486 1.54 0 1.54-.891-.065-1.09-.634-2.09-1.54-2.701-.864-.486-1.567-.081-1.567.891zM533.084 398.646c.065 1.09.634 2.09 1.54 2.701.864.486 1.54 0 1.54-.891-.044-1.097-.618-2.105-1.54-2.701-.837-.486-1.54-.081-1.54.891zM527.655 395.513c.04 1.098.615 2.108 1.54 2.7.837.487 1.54 0 1.54-.863-.048-1.096-.622-2.102-1.54-2.701-.864-.514-1.54-.136-1.54.864z" transform="translate(-666 -200) translate(666 200)"/>
                <path fill="#212D60" d="M522.2 392.353c.056 1.093.627 2.095 1.539 2.7.864.487 1.566 0 1.566-.89-.05-1.103-.634-2.111-1.566-2.702-.838-.486-1.54-.08-1.54.892z" transform="translate(-666 -200) translate(666 200)"/>
                <path fill="#EE1C50" d="M553.666 440.593c.044 1.097.618 2.105 1.54 2.701.837.486 1.54 0 1.54-.891-.065-1.091-.635-2.09-1.54-2.701-.864-.486-1.54-.081-1.54.891z" transform="translate(-666 -200) translate(666 200)"/>
                <path fill="#212D60" d="M548.21 437.568c.065 1.09.634 2.09 1.54 2.701.864.486 1.566 0 1.566-.891-.054-1.101-.637-2.108-1.566-2.701-.838-.595-1.54-.19-1.54.891zM542.781 434.3c.039 1.098.614 2.108 1.54 2.7.864.487 1.54 0 1.54-.864-.04-1.098-.615-2.107-1.54-2.7-.865-.487-1.54-.109-1.54.864z" transform="translate(-666 -200) translate(666 200)"/>
                <path fill="#EE1C50" d="M537.325 431.167c.054 1.1.638 2.107 1.567 2.7.837.487 1.54 0 1.54-.89-.049-1.097-.622-2.102-1.54-2.702-.865-.486-1.567-.08-1.567.892zM531.896 428.033c.052 1.095.624 2.099 1.54 2.701.864.487 1.54 0 1.54-.891-.053-1.095-.625-2.098-1.54-2.701-.865-.378-1.54-.081-1.54.891zM526.44 424.9c.05 1.102.634 2.11 1.566 2.701.838.513 1.54 0 1.54-.864-.048-1.096-.621-2.102-1.54-2.701-.864-.513-1.566-.135-1.566.864zM521.01 421.74c.049 1.096.622 2.101 1.54 2.701.865.486 1.54 0 1.54-.891-.039-1.099-.614-2.108-1.54-2.701-.837-.487-1.54-.081-1.54.89z" transform="translate(-666 -200) translate(666 200)"/>
                <path fill="#212D60" d="M553.261 468.036c.039 1.098.614 2.108 1.54 2.7.864.487 1.54 0 1.54-.89-.04-1.099-.615-2.108-1.54-2.702-.973-.459-1.54-.08-1.54.892zM547.805 464.902c.054 1.101.638 2.108 1.567 2.702.837.486 1.54 0 1.54-.892-.066-1.09-.635-2.09-1.54-2.7-.946-.487-1.567-.082-1.567.89z" transform="translate(-666 -200) translate(666 200)"/>
                <path fill="#284CF9" d="M542.376 461.877c.048 1.096.621 2.102 1.54 2.701.864.514 1.54 0 1.54-.864-.044-1.097-.619-2.105-1.54-2.701-.892-.621-1.54-.216-1.54.864zM536.947 458.61c.039 1.097.614 2.107 1.54 2.7.837.486 1.539 0 1.539-.864-.048-1.096-.621-2.102-1.54-2.701-.864-.486-1.54-.108-1.54.864zM531.49 455.476c.057 1.093.628 2.095 1.54 2.7.865.487 1.567 0 1.567-.89-.05-1.103-.634-2.111-1.567-2.701-.81-.487-1.54-.082-1.54.89z" transform="translate(-666 -200) translate(666 200)"/>
                <path fill="#212D60" d="M526.062 452.343c.052 1.094.624 2.098 1.54 2.7.837.487 1.539 0 1.539-.89-.065-1.092-.634-2.09-1.54-2.702-.783-.378-1.54-.08-1.54.892zM520.606 449.21c.048 1.095.62 2.1 1.54 2.7.864.514 1.566 0 1.566-.864-.05-1.102-.635-2.11-1.567-2.7-.73-.514-1.54-.136-1.54.863z" transform="translate(-666 -200) translate(666 200)"/>
                <path fill="#6878D4" d="M145.972 197.365l-36.005-20.825c-3.555-2.04-7.925-2.04-11.48 0L52.57 203.09l40.515 23.985h17.233l35.654-21.986c1.367-.806 2.206-2.275 2.206-3.863 0-1.587-.839-3.056-2.206-3.862z" opacity=".2" transform="translate(-666 -200) translate(666 200)"/>
                <path fill="url(#1c64snmmkh)" d="M135.789 178.485v22.391c-.032 1.122-.646 2.145-1.62 2.701l-38.193 22.149c-3.482 2.023-7.782 2.023-11.264 0l-38.084-21.96c-1.012-.601-1.605-1.715-1.54-2.89h-.243v-22.391h90.944z" transform="translate(-666 -200) translate(666 200)"/>
                <path fill="#F0F0FC" d="M95.949 203.091l38.165-22.122c1.02-.567 1.652-1.642 1.652-2.809 0-1.166-.632-2.242-1.652-2.809l-38.382-22.094c-3.174-1.84-7.09-1.84-10.263 0L46.6 175.702c-.958.563-1.546 1.59-1.546 2.701s.588 2.139 1.546 2.702l38.057 21.986c3.49 2.028 7.8 2.028 11.29 0z" transform="translate(-666 -200) translate(666 200)"/>
                <path fill="#212D60" d="M100.675 209.411c-.86.626-1.356 1.637-1.323 2.701 0 .973.594 1.432 1.323 1l24.634-14.208v-3.727l-24.634 14.234zM128.793 193.178l-3.457 1.999v3.592l3.484-2.025c.88-.614 1.388-1.63 1.35-2.702-.026-.837-.62-1.296-1.377-.864z" transform="translate(-666 -200) translate(666 200)"/>
                <path fill="url(#1c64snmmkh)" d="M135.789 149.313v22.392c-.032 1.121-.646 2.145-1.62 2.701l-38.193 22.148c-3.482 2.024-7.782 2.024-11.264 0l-38.084-21.959c-1.012-.602-1.605-1.715-1.54-2.89h-.243v-22.392h90.944z" transform="translate(-666 -200) translate(666 200)"/>
                <path fill="#F0F0FC" d="M95.949 173.92l38.165-22.04c1.02-.568 1.652-1.643 1.652-2.81s-.632-2.242-1.652-2.809l-38.382-22.175c-3.174-1.84-7.09-1.84-10.263 0L46.6 146.53c-.972.552-1.573 1.584-1.573 2.701 0 1.118.6 2.15 1.573 2.701l38.057 21.987c3.49 2.028 7.8 2.028 11.29 0z" transform="translate(-666 -200) translate(666 200)"/>
                <path fill="#212D60" d="M100.675 180.24c-.814.592-1.304 1.532-1.323 2.54 0 .999.594 1.458 1.323 1.026l24.634-14.235v-3.565l-24.634 14.234zM128.793 164.007l-3.457 1.999v3.565l3.457-2.107c.832-.592 1.334-1.544 1.35-2.566 0-.864-.594-1.323-1.35-.891z" transform="translate(-666 -200) translate(666 200)"/>
                <path fill="#EE1C50" d="M82.443 184.616c.053 1.094.625 2.098 1.54 2.7.864.487 1.54 0 1.54-.89-.053-1.095-.625-2.099-1.54-2.701-.864-.487-1.54-.054-1.54.89z" transform="translate(-666 -200) translate(666 200)"/>
                <path fill="#212D60" d="M76.987 181.483c.05 1.102.635 2.11 1.567 2.7.837.514 1.54 0 1.54-.864-.048-1.095-.622-2.101-1.54-2.7-.864-.514-1.567-.136-1.567.864zM71.558 178.268c.036 1.086.588 2.09 1.486 2.701.864.487 1.54 0 1.54-.89-.04-1.1-.615-2.109-1.54-2.702-.784-.432-1.486-.027-1.486.891z" transform="translate(-666 -200) translate(666 200)"/>
                <path fill="#EE1C50" d="M66.13 175.19c.043 1.096.617 2.104 1.539 2.7.837.486 1.54 0 1.54-.891-.066-1.09-.635-2.09-1.54-2.701-.865-.486-1.54-.081-1.54.891zM60.673 172.056c.048 1.096.621 2.101 1.54 2.701.864.513 1.566 0 1.566-.864-.054-1.101-.638-2.108-1.566-2.701-.838-.513-1.54-.135-1.54.864zM55.244 168.896c.039 1.098.614 2.108 1.54 2.7.837.487 1.54 0 1.54-.863-.049-1.096-.622-2.102-1.54-2.701-.865-.568-1.54-.109-1.54.864zM49.788 165.763c.056 1.093.628 2.095 1.54 2.7.864.487 1.566 0 1.566-.89-.05-1.103-.634-2.111-1.567-2.702-.837-.486-1.54-.108-1.54.892z" transform="translate(-666 -200) translate(666 200)"/>
                <path fill="#212D60" d="M82.038 212.058c.048 1.096.621 2.102 1.54 2.701.864.487 1.566 0 1.566-.89-.05-1.103-.634-2.112-1.566-2.702-.838-.486-1.54-.081-1.54.891zM76.61 208.925c.051 1.095.624 2.099 1.539 2.701.837.486 1.54 0 1.54-.891-.066-1.091-.635-2.09-1.54-2.701-.865-.486-1.54-.054-1.54.891z" transform="translate(-666 -200) translate(666 200)"/>
                <path fill="#284CF9" d="M71.153 205.792c.048 1.096.621 2.101 1.54 2.701.864.513 1.566 0 1.566-.864-.05-1.103-.634-2.111-1.566-2.701-.838-.514-1.54-.135-1.54.864zM65.724 202.578c.039 1.098.614 2.108 1.54 2.7.864.487 1.54 0 1.54-.89-.04-1.099-.615-2.108-1.54-2.702-.865-.432-1.54-.027-1.54.892zM60.268 199.499c.054 1.1.638 2.107 1.566 2.7.838.487 1.54 0 1.54-.89-.065-1.092-.634-2.09-1.54-2.702-.864-.486-1.566-.08-1.566.892z" transform="translate(-666 -200) translate(666 200)"/>
                <path fill="#212D60" d="M54.839 196.365c.048 1.096.62 2.102 1.54 2.701.864.514 1.539 0 1.539-.864-.044-1.097-.618-2.104-1.54-2.7-.837-.514-1.54-.136-1.54.863zM49.383 193.205c.05 1.102.634 2.11 1.566 2.701.838.486 1.54 0 1.54-.864-.048-1.096-.621-2.102-1.54-2.701-.864-.567-1.566-.108-1.566.864z" transform="translate(-666 -200) translate(666 200)"/>
                <path fill="#6878D4" d="M475.498 45.485L439.71 24.66c-3.542-2.05-7.911-2.05-11.453 0L382.34 51.212l40.515 23.985h17.368l35.653-21.96c1.33-.878 2.098-2.392 2.02-3.983-.078-1.592-.99-3.024-2.398-3.769z" opacity=".2" transform="translate(-666 -200) translate(666 200)"/>
                <path fill="url(#jx157yxnxi)" d="M465.558 26.578v22.419c-.031 1.121-.646 2.145-1.62 2.7l-38.193 22.041c-3.49 2.028-7.8 2.028-11.29 0l-38.058-21.96c-1.026-.59-1.632-1.707-1.566-2.89h-.216v-22.31h90.943z" transform="translate(-666 -200) translate(666 200)"/>
                <path fill="#F0F0FC" d="M425.691 51.32l38.193-22.149c1.005-.578 1.624-1.65 1.624-2.809 0-1.16-.62-2.23-1.624-2.809L425.475 1.378c-3.166-1.835-7.071-1.835-10.237 0l-38.895 22.445c-.972.552-1.572 1.584-1.572 2.701 0 1.118.6 2.15 1.572 2.701l38.058 22.095c3.49 2.028 7.8 2.028 11.29 0z" transform="translate(-666 -200) translate(666 200)"/>
                <path fill="#212D60" d="M430.445 57.532c-.832.58-1.334 1.525-1.35 2.54 0 .998.594 1.458 1.35 1.025l24.633-14.234v-3.646l-24.633 14.315zM411.808 60.18c.043 1.096.618 2.104 1.54 2.7.837.486 1.539 0 1.539-.891-.065-1.091-.634-2.09-1.54-2.701-.864-.486-1.54-.081-1.54.891zM406.352 57.046c.065 1.09.634 2.09 1.54 2.7.864.487 1.566 0 1.566-.89-.054-1.101-.638-2.108-1.567-2.701-.837-.487-1.54-.081-1.54.89z" transform="translate(-666 -200) translate(666 200)"/>
                <path fill="#EE1C50" d="M400.923 54.02c.039 1.1.614 2.109 1.54 2.702.864.486 1.539 0 1.539-.865-.04-1.098-.614-2.107-1.54-2.7-.864-.622-1.54-.244-1.54.864zM395.467 50.752c.054 1.101.637 2.108 1.566 2.702.837.486 1.54 0 1.54-.892-.048-1.096-.621-2.101-1.54-2.7-.864-.487-1.566-.082-1.566.89zM390.037 47.62c.053 1.094.625 2.098 1.54 2.7.864.487 1.54 0 1.54-.891-.053-1.095-.625-2.098-1.54-2.701-.864-.486-1.54-.081-1.54.891z" transform="translate(-666 -200) translate(666 200)"/>
                <path fill="#212D60" d="M384.581 44.486c.05 1.102.635 2.11 1.567 2.701.837.513 1.54 0 1.54-.864-.048-1.096-.622-2.102-1.54-2.701-.864-.405-1.567-.135-1.567.864zM379.152 41.326c.048 1.096.621 2.101 1.54 2.7.864.487 1.54 0 1.54-.89-.04-1.099-.615-2.108-1.54-2.701-.837-.487-1.54-.082-1.54.89z" transform="translate(-666 -200) translate(666 200)"/>
                <path fill="url(#mp83e1anuj)" d="M59.728 249.225c-1.02-.515-2.223-.515-3.242 0l-32.628 18.907c-6.283-1.384-12.851-.544-18.583 2.377-1.801.94-3.307 2.361-4.349 4.105h-.81v3.242c.38 3.129 2.367 5.832 5.24 7.13 7.902 4.014 17.245 4.014 25.146 0 4.835-2.7 6.267-6.86 4.295-10.426l4.052-2.35 7.563-4.348c.3-.16.523-.431.62-.756l.19-.703c.279-.597.856-.999 1.512-1.053l2.485-.486c.303-.05.596-.15.865-.297l1.54-.892c.2-.117.374-.273.512-.459l2.107-3.241c.336-.417.82-.688 1.35-.756l2.972-.595c.55-.114 1.05-.398 1.432-.81.632-.753.95-1.72.89-2.701v-1.216c-.955-1.62-2.01-3.181-3.16-4.672z" transform="translate(-666 -200) translate(666 200)"/>
                <path fill="#F0F0FC" d="M62.969 253.897l-2.701-7.05c-.123-.282-.344-.512-.621-.647-1.016-.529-2.226-.529-3.242 0l-32.628 18.907c-6.248-1.39-12.784-.58-18.502 2.296-6.915 3.997-6.888 10.507 0 14.558 7.902 4.013 17.245 4.013 25.146 0 4.835-2.7 6.267-6.833 4.268-10.399l4.079-2.35 7.644-4.51c.298-.148.522-.412.62-.73l.19-.702c.293-.576.867-.956 1.512-1l2.485-.485c.301-.07.592-.18.865-.325l1.54-.891c.211-.1.39-.26.512-.46l2.107-3.213c.332-.427.816-.708 1.35-.784l3.917-.81c1.08-.216 1.702-.864 1.459-1.405z" transform="translate(-666 -200) translate(666 200)"/>
                <path fill="#CBD3EF" d="M14.134 279.422c-1.558.808-3.411.808-4.97 0-.612-.209-1.024-.784-1.024-1.431s.412-1.223 1.024-1.432c1.559-.807 3.412-.807 4.97 0 .587.233.973.8.973 1.432 0 .631-.386 1.199-.973 1.431z" transform="translate(-666 -200) translate(666 200)"/>
                <path fill="#CBD3EF" d="M57.08 249.198l-.242-.216c-.377-.218-.84-.218-1.216 0L24.56 266.889c-5.703-1.62-11.808-1.031-17.097 1.648-5.808 3.35-5.78 8.832 0 12.236 6.638 3.364 14.483 3.364 21.122 0 5.807-3.35 5.78-8.86 0-12.236l24.876-14.37c.091-.053.148-.15.148-.256 0-.106-.057-.203-.148-.257l-.35-.216c-.13-.055-.277-.055-.406 0l-25.12 14.559-.459-.216 29.955-17.395c.218-.118.354-.346.354-.594s-.136-.476-.354-.594zm-28.82 31.359c-6.382 3.243-13.929 3.243-20.311 0-5.645-3.269-5.672-8.536 0-11.777 6.392-3.239 13.946-3.239 20.339 0 5.537 3.268 5.564 8.562-.027 11.777z" transform="translate(-666 -200) translate(666 200)"/>
                <path fill="#FFF" d="M294.799 62.259c-12.02 1.972-26.848 8.616-31.332 28.901L223.14 247.982s-8.103 27.956-37.139 16.558l82.517 46.43-.432-.162 105.34 59.423c32.17 15.666 41.083-14.829 41.083-14.829l40.326-156.822c7.51-33.87 31.035-36.113 35.114-35.545L294.799 62.259z" transform="translate(-666 -200) translate(666 200)"/>
                <path fill="#485DB5" d="M503.4 229.912L481.792 216.92 481.197 219.567 502.806 232.532zM501.266 239.393L479.658 226.401 479.064 229.048 500.672 242.013zM485.276 201.497L484.682 204.117 492.245 208.655 492.839 206.035zM484.115 206.629L483.52 209.276 491.083 213.814 491.677 211.167zM475.93 242.931L475.336 245.578 481.657 249.387 482.251 246.74zM474.769 248.09L474.148 250.737 480.495 254.519 481.089 251.899zM471.258 263.54L470.663 266.16 485.303 274.966 485.897 272.319zM468.935 273.831L468.341 276.451 482.98 285.257 483.574 282.61zM467.692 279.314L467.098 281.934 472.608 285.257 473.202 282.61zM464.208 294.764L463.614 297.384 469.124 300.679 469.718 298.059zM461.885 305.055L461.291 307.675 466.801 310.997 467.395 308.35z" transform="translate(-666 -200) translate(666 200)"/>
                <path fill="#F0F0FC" d="M292.233 106.151L290.531 112.768 309.439 123.059 311.167 116.496zM288.911 119.062L287.209 125.652 306.035 135.916 307.764 129.353zM285.588 131.946L283.887 138.536 302.632 148.773 304.388 142.21zM282.293 144.83L280.591 151.447 327.346 176.945 329.075 170.381zM276.162 168.572L274.487 175.162 308.655 193.826 310.384 187.236zM272.866 181.456L271.165 188.046 305.252 206.683 307.008 200.093zM402.786 252.088L374.398 236.611 372.643 243.174 401.085 258.705zM269.544 194.34L267.843 200.957 301.876 219.513 303.604 212.95zM401.328 173.218L313.868 125.49 315.624 118.927 403.056 166.654zM376.019 174.109L310.492 138.347 312.221 131.757 377.748 167.545zM418.804 189.802L382.475 169.976 380.746 176.54 417.129 196.419zM415.481 202.821L308.817 144.614 307.089 151.204 413.78 209.411zM412.159 215.705L340.771 176.756 339.015 183.346 410.457 222.322zM406.028 239.447L314.841 189.667 313.112 196.257 404.353 246.037zM368.159 240.987L309.709 209.087 311.437 202.524 369.888 234.423zM308.034 215.381L306.305 221.944 343.607 242.283 345.335 235.719zM316.812 245.497L282.212 226.617 283.941 220.026 318.541 238.907zM323.106 241.311L321.377 247.901 339.447 257.76 341.203 251.196zM280.537 232.883L278.809 239.474 335.99 270.671 337.745 264.107zM277.161 245.74L275.405 252.304 332.559 283.501 334.315 276.937z" transform="translate(-666 -200) translate(666 200)"/>
                <path fill="#EE1C50" d="M352.601 320.775c2.833-2.566 5.878-4.888 9.103-6.942-.729.127-1.478-.017-2.107-.405-.807-.798-1.197-1.926-1.054-3.052h-.243c-1.323.702-2.053.432-2.35.19-1.08-.784-.648-3.728.54-7.429l-1.08.19-.864.162c-1.918.972-4.754 2.295-5.402 1.836l-.54-.459.648-.621c1.44-1.214 3.207-1.975 5.078-2.188.925-.44 1.826-.926 2.7-1.459-.704-3.092-1.671-6.12-2.89-9.048 0-.27-.404-.19-.54 0-.135.189-.405.189-.378.513v.918c.274 2.508.082 5.045-.567 7.482-.31.821-.975 1.457-1.81 1.729-.698.332-1.532.167-2.052-.405l-.73-1.08c-.399-.412-1.035-.48-1.512-.163-.584.227-.977.78-1 1.405.45 5.552.613 11.124.487 16.692l-1.702.405c.124-5.523-.03-11.049-.46-16.557.032-1.425.916-2.692 2.243-3.214 1.097-.725 2.557-.554 3.457.405l.73 1.026c0 .163.296 0 .404 0 .156-.047.277-.168.324-.324.587-2.273.752-4.635.487-6.968v-.919c.07-1.084.783-2.02 1.81-2.377 1.107-.459 2.106-.189 2.43.622 1.01 2.442 1.848 4.95 2.512 7.509v.162c2.19-5.597 5.223-10.826 8.995-15.504 1.08-1.356 2.96-1.772 4.51-1 4.376 3.241-2.836 10.804-5.132 13.181-2.365 2.258-4.964 4.26-7.751 5.97.135.864 0 1.026-.244 1.242-.125.131-.27.24-.432.324-1.188 3.512-1.728 6.213-1.026 6.726l.567-.162c.323-.182.63-.39.918-.622.505-2.87 1.764-5.554 3.647-7.779.22-.202.49-.342.783-.405.23-.111.5-.111.73 0 .972.73.378 4.62-2.702 7.617l-.945.865c-.19 1.431 0 2.7.594 3.106.594.405 1.999 0 3.43-.405l1.027-.297 4.78-3.053 5.403-3.43c2.122-7.574 6.17-14.47 11.75-20.015 2.82-2.884 6.308-5.027 10.155-6.24 1.229-.37 2.558-.192 3.647.487 3.943 2.944-3.944 10.67-6.537 13.235-5.423 4.91-11.292 9.305-17.53 13.127-2.313 9.701.202 19.923 6.753 27.443l-1.459 1.107c-6.355-7.452-8.952-17.402-7.05-27.01l-4.294 2.7-2.863 1.81c.138.125.24.283.297.46.405 1.296-1.161 4.375-3.268 6.455-1.35 1.324-10.534 8.535-13.073 6.645-.702-.567-1.378-2.215.648-4.214zm13.1-8.103c-4.251 2.575-8.273 5.512-12.02 8.778-1.296 1.297-.513 2.026-.486 2.053 1.189.892 8.617-4.186 10.67-6.185 1.414-1.265 2.364-2.967 2.7-4.835-.295.086-.584.195-.864.324v-.135zm-4.862-6.212c.932-1.08 1.54-2.4 1.756-3.809-.767 1.226-1.358 2.554-1.756 3.944v-.135zm7.563-22.797c-3.763 4.587-6.73 9.773-8.778 15.342 2.134-1.404 4.133-3.005 5.97-4.781 1.43-1.405 8.4-8.535 4.969-11.101-.891-.513-1.945.486-2.16.675v-.135zm28.928-3.592c-3.361 1.042-6.413 2.897-8.886 5.402-5.031 5.025-8.783 11.185-10.94 17.961 5.676-3.522 11.02-7.555 15.964-12.046 6.158-6.077 8.238-9.724 6.32-11.155-.778-.36-1.672-.37-2.458-.027v-.135z" transform="translate(-666 -200) translate(666 200)"/>
            </g>
        </g>
    </g>
</svg>
