<svg xmlns="http://www.w3.org/2000/svg" width="52" height="52" viewBox="0 0 52 52">
    <g fill="none" fill-rule="evenodd">
        <g fill="#EE1C50">
            <g>
                <g>
                    <g>
                        <g>
                            <path d="M40.975 52h-29.95C4.936 52 0 47.064 0 40.975v-29.95C0 4.936 4.936 0 11.025 0h29.95C47.064 0 52 4.936 52 11.025v29.95C52 47.064 47.064 52 40.975 52" opacity=".1" transform="translate(-273 -3361) translate(188 3173) translate(71 174) translate(14 14)"/>
                            <path fill-rule="nonzero" d="M10.043 17.993v-.955c0-1.693 4.204-3.038 9.437-3.038 5.19 0 9.437 1.345 9.437 3.038v.955c0 1.693-4.204 3.038-9.437 3.038s-9.437-1.345-9.437-3.038zm9.394 16.016c.9 0 1.759-.044 2.574-.13V30.666c-.815.086-1.716.13-2.574.13-2.617 0-5.105-.347-6.992-.955-.815-.26-1.416-.564-1.93-.825-.343.304-.515.651-.515.999v.954c.043 1.693 4.247 3.039 9.437 3.039zm0-8.68c1.03 0 1.973-.044 2.917-.131.429-.695 1.33-1.476 3.174-2.04.987-.304 2.102-.564 3.346-.694V21.378c0-.347-.172-.694-.515-.998-.472.304-1.115.564-1.93.825-1.887.608-4.375.955-6.992.955s-5.105-.348-6.992-.955c-.815-.26-1.416-.564-1.93-.825-.343.304-.515.651-.515.998v.955c.043 1.65 4.247 2.995 9.437 2.995zm0 4.34c.9 0 1.759-.044 2.574-.13V26.37c-.815.087-1.716.13-2.574.13-2.617 0-5.105-.347-6.992-.955-.815-.26-1.416-.564-1.93-.825-.343.304-.515.652-.515.999v.955c.043 1.649 4.247 2.994 9.437 2.994zm22.52 1.953v-.955c0-.348-.171-.695-.515-.999-.471.304-1.115.565-1.93.825-1.887.608-4.375.955-6.992.955s-5.104-.347-6.992-.955c-.815-.26-1.415-.564-1.93-.825-.343.304-.515.651-.515.999v.955c0 1.692 4.204 3.038 9.437 3.038s9.437-1.346 9.437-3.038zM23.126 26.37v.955c0 1.692 4.204 3.038 9.437 3.038 5.19 0 9.437-1.346 9.437-3.038v-.955c0-1.693-4.204-3.038-9.437-3.038s-9.437 1.345-9.437 3.038zm0 9.592c0 1.693 4.204 3.038 9.437 3.038C37.753 39 42 37.655 42 35.962v-.955c0-.347-.172-.694-.515-.998-.472.303-1.115.564-1.93.824-1.887.608-4.375.955-6.992.955s-5.105-.347-6.992-.955c-.815-.26-1.416-.564-1.93-.824-.343.303-.515.65-.515.998v.955z" transform="translate(-273 -3361) translate(188 3173) translate(71 174) translate(14 14)"/>
                        </g>
                    </g>
                </g>
            </g>
        </g>
    </g>
</svg>
