<svg xmlns="http://www.w3.org/2000/svg" width="52" height="52" viewBox="0 0 52 52">
    <g fill="none" fill-rule="evenodd">
        <g fill="#EE1C50">
            <g>
                <g>
                    <g>
                        <g>
                            <path d="M40.975 52h-29.95C4.936 52 0 47.064 0 40.975v-29.95C0 4.936 4.936 0 11.025 0h29.95C47.064 0 52 4.936 52 11.025v29.95C52 47.064 47.064 52 40.975 52" opacity=".1" transform="translate(-525 -3361) translate(188 3173) translate(71 174) translate(252) translate(14 14)"/>
                            <path fill-rule="nonzero" d="M35.374 26.29v-.955c0-.347-.172-.694-.515-.998-.472.304-1.115.564-1.93.824-1.887.608-4.375.955-6.992.955s-5.105-.347-6.992-.955c-.815-.26-1.416-.564-1.93-.824-.343.304-.515.65-.515.998v.955c0 1.693 4.204 3.038 9.437 3.038s9.437-1.345 9.437-3.038zm-18.831-5.252v.955c0 1.693 4.204 3.038 9.437 3.038 5.19 0 9.437-1.345 9.437-3.038v-.955c0-1.693-4.204-3.038-9.437-3.038s-9.437 1.345-9.437 3.038zm0 9.592c0 1.693 4.204 3.038 9.437 3.038 5.19 0 9.437-1.345 9.437-3.038v-.955c0-.347-.172-.694-.515-.998-.472.304-1.115.564-1.93.825-1.888.607-4.375.955-6.992.955s-5.105-.348-6.992-.955c-.815-.26-1.416-.564-1.93-.825-.344.304-.515.651-.515.998v.955z" transform="translate(-525 -3361) translate(188 3173) translate(71 174) translate(252) translate(14 14)"/>
                        </g>
                    </g>
                </g>
            </g>
        </g>
    </g>
</svg>
