<svg xmlns="http://www.w3.org/2000/svg" width="28" height="28" viewBox="0 0 28 28">
    <g fill="none" fill-rule="evenodd">
        <g fill="#FFF" fill-rule="nonzero">
            <g>
                <g>
                    <g>
                        <g>
                            <path d="M47 21.409l-2.253 23.794c-.04.494-.307.939-.718 1.199-.412.26-.919.304-1.367.119l-7.435-2.95-4.17 4.008c-.274.27-.639.42-1.019.421-.402.005-.79-.156-1.076-.446-.286-.29-.447-.686-.446-1.099v-2.834L38.56 30.75c.157-.2.187-.475.079-.707-.108-.232-.337-.38-.588-.38-.154.002-.302.061-.417.166l-11.58 10.1-6.102-2.422c-.541-.214-.912-.732-.949-1.326-.037-.594.266-1.155.776-1.44l25.357-14.574c.407-.237.91-.22 1.3.043.392.263.606.728.557 1.205l.006-.006z" transform="translate(-1067 -8169) translate(0 7571) translate(120 526) translate(520 52) translate(408)"/>
                        </g>
                    </g>
                </g>
            </g>
        </g>
    </g>
</svg>
