<svg xmlns="http://www.w3.org/2000/svg" width="40" height="40" viewBox="0 0 40 40">
    <g fill="none" fill-rule="evenodd">
        <g>
            <g>
                <g>
                    <g>
                        <g>
                            <path fill="#FFF" d="M31.52 40H8.48C3.798 40 0 36.203 0 31.52V8.48C0 3.798 3.797 0 8.48 0h23.04C36.202 0 40 3.797 40 8.48v23.04c0 4.683-3.797 8.48-8.48 8.48" opacity=".05" transform="translate(-1071 -2549) translate(0 2045) translate(101 150) translate(958 342) translate(12 12)"/>
                            <path fill="#EE1C50" fill-rule="nonzero" d="M29.067 30C30.875 30 32 28.9 32 27.167c0-1.917-2.234-2.6-2.234-3.834H28.13c0 2.234 2.234 2.6 2.234 3.834 0 .75-.495 1.233-1.296 1.233-.836 0-1.364-.583-1.364-1.5h-1.637c-.137 1.9 1.023 3.1 3.001 3.1zm-.102-7.7c.716 0 1.176-.45 1.176-1.133 0-.7-.46-1.167-1.176-1.167-.7 0-1.177.467-1.177 1.167 0 .683.477 1.133 1.177 1.133zm-.853-7.967l-4.775 2.5c-.886.467-1.279.967-1.279 1.417 0 1.083 2.217 2.617 2.217 6.417 0 3.166-1.722 5.333-4.672 5.333-3.274 0-4.707-2.667-4.707-5.35 0-3.533 2.166-5.133 2.166-6.317 0-.466-.324-1.033-1.228-1.5l-4.775-2.5C9.371 13.45 10.207 10 10.207 10h18.758s.818 3.45-.853 4.333z" transform="translate(-1071 -2549) translate(0 2045) translate(101 150) translate(958 342) translate(12 12) matrix(1 0 0 -1 0 40)"/>
                        </g>
                    </g>
                </g>
            </g>
        </g>
    </g>
</svg>
