<svg xmlns="http://www.w3.org/2000/svg" width="40" height="40" viewBox="0 0 40 40">
    <g fill="none" fill-rule="evenodd">
        <g>
            <g>
                <g>
                    <g>
                        <g>
                            <path fill="#FFF" d="M31.52 40H8.48C3.798 40 0 36.203 0 31.52V8.48C0 3.798 3.797 0 8.48 0h23.04C36.202 0 40 3.797 40 8.48v23.04c0 4.683-3.797 8.48-8.48 8.48" opacity=".05" transform="translate(-1071 -2366) translate(0 2045) translate(101 150) translate(958 159) translate(12 12)"/>
                            <path fill="#F769FF" fill-rule="nonzero" d="M16.105 18.84c1.445 0 2.631.684 2.727 1.546l.007.113V29H8v-8.5c0-.878 1.126-1.598 2.547-1.656l.187-.004h5.371zm13.162 0c1.444 0 2.63.684 2.727 1.546l.006.113V29H21.161v-8.5c0-.878 1.127-1.598 2.547-1.656l.187-.004h5.372zM13.419 10c2.32 0 4.206 1.863 4.206 4.154 0 2.29-1.886 4.154-4.206 4.154-2.319 0-4.206-1.863-4.206-4.154C9.213 11.864 11.1 10 13.42 10zm13.161 0c2.32 0 4.206 1.863 4.206 4.154 0 2.29-1.886 4.154-4.206 4.154-2.319 0-4.206-1.863-4.206-4.154 0-2.29 1.887-4.154 4.206-4.154z" transform="translate(-1071 -2366) translate(0 2045) translate(101 150) translate(958 159) translate(12 12)"/>
                        </g>
                    </g>
                </g>
            </g>
        </g>
    </g>
</svg>
