<svg xmlns="http://www.w3.org/2000/svg" width="56" height="56" viewBox="0 0 56 56">
    <g fill="none" fill-rule="evenodd">
        <g fill="#FFF" fill-rule="nonzero">
            <g>
                <g>
                    <g>
                        <path d="M36.397 17c1.437.002 2.601 1.17 2.603 2.612v13.173c-.002 1.441-1.166 2.61-2.603 2.612h-6.184l3.018 3.029c.355.36.353.939-.004 1.296-.356.358-.933.36-1.292.005L28 35.777l-3.935 3.95c-.231.234-.57.327-.888.242-.318-.085-.566-.334-.65-.653-.085-.318.008-.658.242-.89l3.018-3.03h-6.184c-1.437-.001-2.601-1.17-2.603-2.611V19.612c.002-1.442 1.166-2.61 2.603-2.612zm0 1.84H19.603c-.425 0-.77.346-.77.772v13.173c0 .426.345.772.77.772h16.794c.425 0 .77-.346.77-.772V19.612c0-.426-.345-.772-.77-.772zM33.5 20.68c.243 0 .476.096.648.269.172.172.269.406.269.65v9.199c0 .508-.41.92-.917.92-.506 0-.917-.412-.917-.92v-9.199c0-.244.097-.478.269-.65.172-.173.405-.27.648-.27zM28 24.358c.243 0 .476.097.648.27.172.172.269.406.269.65v5.519c0 .508-.41.92-.917.92-.506 0-.917-.412-.917-.92v-5.52c0-.243.097-.477.269-.65.172-.172.405-.27.648-.27zm-5.5 2.76c.243 0 .476.096.648.269.172.172.269.406.269.65v2.76c0 .508-.41.92-.917.92-.506 0-.917-.412-.917-.92v-2.76c0-.244.097-.478.269-.65.172-.173.405-.27.648-.27z" transform="translate(-295 -493) translate(160 493) translate(135)"/>
                    </g>
                </g>
            </g>
        </g>
    </g>
</svg>
