<svg xmlns="http://www.w3.org/2000/svg" width="40" height="40" viewBox="0 0 40 40">
    <g fill="none" fill-rule="evenodd">
        <g>
            <g>
                <g>
                    <g>
                        <g>
                            <path fill="#FFF" d="M31.52 40H8.48C3.798 40 0 36.203 0 31.52V8.48C0 3.798 3.797 0 8.48 0h23.04C36.202 0 40 3.797 40 8.48v23.04c0 4.683-3.797 8.48-8.48 8.48" opacity=".05" transform="translate(-113 -2366) translate(0 2045) translate(101 150) translate(0 159) translate(12 12)"/>
                            <path fill="#FFB651" fill-rule="nonzero" d="M24.357 27.37v1.565c0 1.718-2.757 3.065-6.275 3.065-3.517 0-6.274-1.347-6.274-3.065V27.37c1.039 1.276 3.394 2.125 6.274 2.125s5.237-.85 6.275-2.125zm-6.275-6.886c3.518 0 6.275 1.347 6.275 3.065v2.321c0 1.718-2.757 3.066-6.275 3.066-3.517 0-6.274-1.348-6.274-3.066v-2.32c0-1.72 2.757-3.066 6.274-3.066zM33 23.927v1.565c0 1.719-2.757 3.065-6.274 3.065-.524 0-1.027-.033-1.51-.09v-2.496c.484.053.988.082 1.51.082 2.88 0 5.236-.849 6.274-2.126zM9 22.017c.436.537 1.11.998 1.957 1.353-.004.059-.007.12-.007.18v2.266C9.745 25.26 9 24.472 9 23.58zm24-1.153v1.564c0 1.718-2.758 3.065-6.275 3.065-.524 0-1.027-.033-1.51-.09V23.55c0-.224-.032-.442-.092-.653.511.06 1.046.092 1.602.092 2.88 0 5.236-.85 6.274-2.124zM9 18.952c.724.89 2.09 1.57 3.828 1.902-.894.524-1.512 1.193-1.758 1.951C9.796 22.248 9 21.437 9 20.515zm17.725-4.976c3.517 0 6.274 1.346 6.275 3.066v2.32c0 1.719-2.757 3.066-6.274 3.066-.65 0-1.275-.048-1.86-.133-.668-1.153-2.25-2.041-4.328-2.432-.052-.163-.087-.33-.087-.501v-2.321c0-1.719 2.756-3.065 6.274-3.065zM9 15.888c1.037 1.276 3.394 2.124 6.274 2.124 1.667 0 3.155-.286 4.318-.772v2.45l-.063.026c-.464-.049-.948-.074-1.447-.074-1.676 0-3.183.286-4.374.778C10.973 20.087 9 18.904 9 17.451zM15.274 9c3.518 0 6.273 1.346 6.273 3.065v2.236c-1.057.601-1.747 1.397-1.915 2.305-1.122.525-2.648.845-4.358.845-3.519 0-6.274-1.347-6.274-3.066v-2.32C9 10.345 11.755 9 15.274 9z" transform="translate(-113 -2366) translate(0 2045) translate(101 150) translate(0 159) translate(12 12)"/>
                        </g>
                    </g>
                </g>
            </g>
        </g>
    </g>
</svg>
