<svg xmlns="http://www.w3.org/2000/svg" width="40" height="40" viewBox="0 0 40 40">
    <g fill="none" fill-rule="evenodd">
        <g>
            <g>
                <g>
                    <g>
                        <g>
                            <path fill="#FFF" d="M31.52 40H8.48C3.798 40 0 36.203 0 31.52V8.48C0 3.798 3.797 0 8.48 0h23.04C36.202 0 40 3.797 40 8.48v23.04c0 4.683-3.797 8.48-8.48 8.48" opacity=".05" transform="translate(-938 -2708) translate(0 2045) translate(101 150) translate(825 501) translate(12 12)"/>
                            <path fill="#6A86FF" fill-rule="nonzero" d="M30.213 23.076v-6.179C31.234 16.624 32 15.721 32 14.655c0-1.285-1.078-2.324-2.411-2.324-.653 0-1.277.246-1.702.684l-5.56-3.09c.056-.191.084-.382.084-.601C22.411 8.039 21.333 7 20 7s-2.411 1.039-2.411 2.324c0 .219.028.41.085.601l-5.56 3.09c-.426-.41-1.05-.684-1.703-.684-1.333 0-2.411 1.04-2.411 2.324 0 1.066.766 1.969 1.787 2.242v6.206C8.766 23.376 8 24.279 8 25.345c0 1.285 1.078 2.324 2.411 2.324.653 0 1.277-.246 1.702-.684l5.56 3.09c-.056.191-.084.382-.084.601C17.589 31.961 18.667 33 20 33s2.411-1.039 2.411-2.324c0-.219-.028-.41-.085-.601l5.56-3.09c.426.41 1.05.684 1.703.684 1.333 0 2.411-1.04 2.411-2.324 0-1.094-.766-1.996-1.787-2.27zm-2.326.601l-3.603-1.996v-3.39l3.603-1.996c.283.274.652.493 1.078.602v6.206c-.426.082-.795.3-1.078.574zm-.625-8.448l-3.63 2.023-3.008-1.667v-4.02c.397-.109.766-.3 1.078-.573l5.56 3.089c-.056.191-.085.383-.085.601 0 .164.029.383.085.547zm-7.886-3.663v4.019l-3.007 1.667-3.631-2.023c.056-.191.085-.383.085-.574 0-.219-.029-.41-.085-.601l5.56-3.09c.284.301.652.492 1.078.602zm-7.234 4.73l3.603 1.995v3.336l-3.632 2.023c-.283-.274-.652-.465-1.02-.547v-6.206c.368-.11.737-.328 1.049-.602zm.596 8.393l3.574-1.996 3.007 1.668v4.046c-.369.137-.737.328-1.021.601l-5.56-3.089c.056-.191.085-.383.085-.601 0-.22-.029-.438-.085-.63zm7.858 3.718v-3.992l3.035-1.695 3.631 2.023c-.056.192-.085.383-.085.575 0 .218.029.41.085.601l-5.56 3.09c-.312-.301-.68-.493-1.106-.602z" transform="translate(-938 -2708) translate(0 2045) translate(101 150) translate(825 501) translate(12 12)"/>
                        </g>
                    </g>
                </g>
            </g>
        </g>
    </g>
</svg>
