<svg xmlns="http://www.w3.org/2000/svg" width="56" height="56" viewBox="0 0 56 56">
    <g fill="none" fill-rule="evenodd">
        <g fill="#FFF" fill-rule="nonzero">
            <g>
                <g>
                    <g>
                        <path d="M18.735 17c-.643.015-1.2.285-1.588.655-.389.37-.628.818-.791 1.239-.163.42-.247.817-.295 1.117-.049.3-.061.527-.061.527v.75c.002.392.307.71.685.711h3.441V33.599s.012.221.06.517c.025.148.059.319.107.505.048.187.11.386.193.592.083.206.183.422.314.627.132.206.29.403.488.58.198.176.44.33.71.432.135.051.277.09.427.116.107.017.221.017.334.02l.017.006c.033.004.066.007.1.006H35.264c.643-.015 1.2-.285 1.589-.655.388-.37.629-.817.792-1.238.163-.421.245-.823.294-1.123.048-.3.06-.522.06-.522.02-.409-.296-.751-.69-.75h-3.436V20.44v-.037s-.012-.22-.06-.516c-.049-.296-.135-.685-.3-1.097-.165-.412-.405-.855-.801-1.208-.397-.353-.963-.595-1.604-.58H18.735zm.031 1.43c.325-.007.504.08.676.232.067.06.131.135.192.22.091.13.172.284.239.45.109.274.177.575.213.796.036.222.04.342.04.342v.1h-2.745c0-.023.001-.117.034-.322.037-.228.108-.534.22-.821.11-.288.262-.547.441-.717.18-.17.368-.272.69-.28zm2.212 0h10.16c.324-.007.504.08.675.232.172.153.322.396.431.67.11.274.177.575.214.796.036.222.04.348.04.348v12.236h-7.561c-.366.002-.667.301-.685.682 0 0-.01.13-.047.358-.009.057-.016.119-.029.184-.013.066-.028.135-.046.205-.017.071-.039.144-.061.217-.023.072-.048.144-.076.216-.027.072-.058.144-.091.212-.033.068-.07.132-.107.194-.038.061-.076.116-.117.168-.042.053-.087.1-.132.143-.045.042-.088.084-.137.117-.048.033-.102.06-.157.084-.054.023-.112.039-.177.053-.06.013-.125.024-.199.026h-.015c-.08.002-.154-.006-.218-.017-.065-.01-.125-.021-.178-.041-.106-.04-.193-.098-.279-.175-.086-.076-.165-.174-.238-.289-.072-.114-.138-.243-.193-.38-.055-.137-.102-.28-.137-.416-.035-.136-.058-.269-.076-.38-.037-.221-.04-.348-.04-.348V20.439v-.037s-.013-.22-.061-.516c-.049-.296-.135-.69-.3-1.103-.046-.116-.102-.235-.163-.352zm4.558 15.711h10.946c-.036.148-.058.281-.117.433-.111.287-.263.546-.442.717-.179.17-.368.273-.69.28H25.05c.026-.049.056-.098.08-.148.052-.106.097-.211.137-.316.041-.106.081-.21.113-.311.032-.102.057-.2.08-.295.024-.095.044-.183.061-.269v-.006l.016-.083v-.002z" transform="translate(-278 -1744) translate(160 1090) translate(0 654) translate(118)"/>
                    </g>
                </g>
            </g>
        </g>
    </g>
</svg>
