<svg xmlns="http://www.w3.org/2000/svg" width="18" height="16" viewBox="0 0 18 16">
    <g fill="none" fill-rule="evenodd">
        <g fill="#FFF" fill-rule="nonzero">
            <g>
                <g>
                    <g>
                        <path d="M2.238 0c-.526.012-.982.228-1.3.524-.318.296-.513.654-.647.99-.133.338-.202.655-.241.895-.04.24-.05.422-.05.422v.599c.001.314.251.568.56.57h2.816v9.279s.01.177.05.414c.02.118.047.255.086.404.04.15.091.308.159.473.067.165.15.338.257.502.107.165.236.322.398.463.162.142.36.264.582.346.11.042.226.073.349.093.088.014.181.014.273.017l.014.004c.027.004.054.005.082.005h10.136c.526-.012.981-.228 1.3-.524.317-.295.514-.654.647-.99.134-.337.201-.659.24-.9.04-.24.05-.416.05-.416.016-.328-.242-.601-.564-.6h-2.812V2.751v-.03s-.01-.176-.05-.413c-.039-.236-.11-.547-.244-.877-.135-.33-.332-.683-.656-.966-.324-.283-.787-.476-1.312-.464H2.238zm.025 1.144c.266-.006.413.063.553.186.055.048.108.108.157.176.075.104.141.227.195.36.09.219.145.46.175.637s.033.273.033.273v.08H1.13c.002-.018.002-.094.029-.257.03-.183.088-.428.18-.658.09-.23.214-.437.36-.573.147-.137.302-.218.565-.224zm1.81 0h8.313c.265-.006.412.063.552.186.14.122.263.316.353.535.09.22.145.46.174.638.03.177.033.278.033.278v9.789H7.312c-.3.001-.546.24-.56.545 0 0-.008.104-.038.287-.008.045-.014.095-.025.147-.01.052-.022.108-.037.164-.014.057-.032.115-.05.173-.02.058-.04.115-.062.173-.023.058-.048.115-.075.17-.027.054-.057.106-.088.155-.03.049-.061.093-.095.135-.034.042-.071.08-.108.114-.036.034-.072.067-.112.093-.04.027-.084.049-.128.067-.045.02-.092.032-.145.043-.05.01-.103.019-.163.021h-.012c-.066.001-.126-.005-.18-.013-.052-.009-.1-.018-.144-.034-.087-.032-.159-.078-.229-.14-.07-.06-.135-.139-.194-.23-.06-.092-.114-.196-.158-.305-.045-.11-.084-.224-.112-.333-.03-.109-.048-.215-.063-.303-.03-.178-.033-.28-.033-.28V2.752v-.03s-.01-.176-.05-.413c-.04-.236-.11-.551-.244-.881-.038-.093-.084-.188-.134-.283zm3.73 12.569h8.954c-.029.118-.047.225-.095.346-.09.23-.215.437-.361.574-.147.136-.301.218-.565.224H7.403c.022-.04.047-.079.066-.118.043-.086.08-.17.112-.254.034-.084.067-.168.093-.249.026-.08.046-.16.066-.235.02-.076.035-.147.05-.215v-.005l.012-.067v-.001z" transform="translate(-866 -8427) translate(0 7571) translate(120 526) translate(746 330)"/>
                    </g>
                </g>
            </g>
        </g>
    </g>
</svg>
