<svg xmlns="http://www.w3.org/2000/svg" width="52" height="52" viewBox="0 0 52 52">
    <g fill="none" fill-rule="evenodd">
        <g fill="#EE1C50">
            <g>
                <g>
                    <g>
                        <g>
                            <path d="M40.975 52h-29.95C4.936 52 0 47.064 0 40.975v-29.95C0 4.936 4.936 0 11.025 0h29.95C47.064 0 52 4.936 52 11.025v29.95C52 47.064 47.064 52 40.975 52" opacity=".1" transform="translate(-777 -3361) translate(188 3173) translate(71 174) translate(504) translate(14 14)"/>
                            <path fill-rule="nonzero" d="M40.056 23.434l-1.228-1.416c-.535-.63-.882-1.417-.944-2.267l-.158-1.857c-.157-1.92-1.7-3.463-3.62-3.62l-1.857-.158c-.819-.062-1.637-.377-2.267-.944l-1.416-1.228c-1.48-1.259-3.652-1.259-5.132 0l-1.416 1.228c-.63.535-1.417.882-2.267.944l-1.857.158c-1.92.157-3.463 1.7-3.62 3.62l-.158 1.857c-.062.819-.377 1.637-.944 2.267l-1.228 1.416c-1.259 1.48-1.259 3.652 0 5.132l1.228 1.416c.535.63.882 1.417.944 2.267l.158 1.857c.157 1.92 1.7 3.463 3.62 3.62l1.857.158c.819.062 1.637.377 2.267.944l1.416 1.228c1.48 1.259 3.652 1.259 5.132 0l1.416-1.228c.63-.535 1.417-.882 2.267-.944l1.857-.158c1.92-.157 3.463-1.7 3.62-3.62l.158-1.857c.062-.819.377-1.637.944-2.267l1.228-1.416c1.259-1.48 1.259-3.684 0-5.132zm-12.97 8.626v1.542c0 .158-.126.284-.283.284h-1.511c-.158 0-.284-.126-.284-.284v-1.51c-1.542-.095-2.77-1.291-2.927-2.802-.032-.158.126-.315.283-.315h1.511c.126 0 .252.094.283.22.095.472.504.819 1.008.819h1.322c.787 0 1.511-.567 1.574-1.354.094-.881-.598-1.637-1.48-1.637h-.975c-1.89 0-3.558-1.354-3.747-3.242-.188-1.984 1.228-3.652 3.085-3.904v-1.51c0-.158.126-.284.284-.284h1.51c.158 0 .284.126.284.283v1.511c1.543.095 2.77 1.29 2.928 2.802.031.157-.126.315-.284.315h-1.51c-.127 0-.252-.095-.284-.22-.094-.473-.504-.82-1.007-.82h-1.322c-.787 0-1.511.568-1.574 1.354-.095.882.598 1.669 1.48 1.669h1.132c2.11 0 3.778 1.794 3.558 3.935-.126 1.637-1.448 2.864-3.054 3.148z" transform="translate(-777 -3361) translate(188 3173) translate(71 174) translate(504) translate(14 14)"/>
                        </g>
                    </g>
                </g>
            </g>
        </g>
    </g>
</svg>
