<svg xmlns="http://www.w3.org/2000/svg" width="40" height="40" viewBox="0 0 40 40">
    <g fill="none" fill-rule="evenodd">
        <g>
            <g>
                <g>
                    <g>
                        <g>
                            <path fill="#FFF" d="M31.52 40H8.48C3.798 40 0 36.203 0 31.52V8.48C0 3.798 3.797 0 8.48 0h23.04C36.202 0 40 3.797 40 8.48v23.04c0 4.683-3.797 8.48-8.48 8.48" opacity=".05" transform="translate(-113 -2549) translate(0 2045) translate(101 150) translate(0 342) translate(12 12)"/>
                            <path fill="#62F4FC" d="M7.167 13.639v12.535h9.722c1.228 0 3.12.923 3.12 2.173.016-.122.955-1.91 3.102-2.173h9.722V13.639H34V27.36h-9.852c-1.718 0-3.111 1.056-3.111 2.639h-2.074c0-1.583-1.393-2.639-3.111-2.639H6V13.64h1.167zM16.889 11c1.083 0 2.035.564 2.592 1.418v14.25c-.557-.854-1.51-1.418-2.592-1.418H8.074V11zm15.037 0v14.25H23.11c-1.083 0-2.035.564-2.592 1.418v-14.25c.557-.854 1.51-1.418 2.592-1.418h8.815z" transform="translate(-113 -2549) translate(0 2045) translate(101 150) translate(0 342) translate(12 12)"/>
                        </g>
                    </g>
                </g>
            </g>
        </g>
    </g>
</svg>
