<svg xmlns="http://www.w3.org/2000/svg" width="40" height="40" viewBox="0 0 40 40">
    <g fill="none" fill-rule="evenodd">
        <g>
            <g>
                <g>
                    <g>
                        <g>
                            <path fill="#FFF" d="M31.52 40H8.48C3.798 40 0 36.203 0 31.52V8.48C0 3.798 3.797 0 8.48 0h23.04C36.202 0 40 3.797 40 8.48v23.04c0 4.683-3.797 8.48-8.48 8.48" opacity=".05" transform="translate(-246 -2708) translate(0 2045) translate(101 150) translate(133 501) translate(12 12)"/>
                            <path fill="#36DA98" fill-rule="nonzero" d="M18.856 19.22s1.013 7.288-5.065 6.752c0 0-2.792-4.917 5.065-6.752zm-12.792 0c7.857 1.835 5.065 6.752 5.065 6.752-6.078.536-5.066-6.752-5.065-6.752zm27.873 0s1.012 7.288-5.065 6.752l-.006-.01c-.137-.254-2.574-4.956 5.07-6.742zm-12.793 0c7.645 1.786 5.208 6.488 5.07 6.741l-.005.01c-6.077.537-5.066-6.751-5.065-6.751zM12.547 13c0-.001 5.361 5.514 0 8.162 0 0-5.36-2.648 0-8.162zm15.08 0c0-.001 5.362 5.514 0 8.162 0 0-5.36-2.648 0-8.162z" transform="translate(-246 -2708) translate(0 2045) translate(101 150) translate(133 501) translate(12 12)"/>
                        </g>
                    </g>
                </g>
            </g>
        </g>
    </g>
</svg>
