<svg xmlns="http://www.w3.org/2000/svg" width="40" height="40" viewBox="0 0 40 40">
    <g fill="none" fill-rule="evenodd">
        <g>
            <g>
                <g>
                    <g>
                        <g>
                            <path fill="#FFF" d="M31.52 40H8.48C3.798 40 0 36.203 0 31.52V8.48C0 3.798 3.797 0 8.48 0h23.04C36.202 0 40 3.797 40 8.48v23.04c0 4.683-3.797 8.48-8.48 8.48" opacity=".05" transform="translate(-246 -2207) translate(0 2045) translate(101 150) translate(133) translate(12 12)"/>
                            <path fill="#B762FC" fill-rule="nonzero" d="M25.566 30.104c.31-.189.712-.087.897.226.186.314.087.722-.224.91-1.924 1.173-4.082 1.76-6.24 1.76-2.158 0-4.316-.586-6.24-1.76-.31-.188-.41-.596-.223-.91.187-.313.59-.415.898-.226 3.433 2.095 7.7 2.095 11.132 0zm-15.478-7.71c2.254 0 4.087 1.858 4.087 4.141s-1.833 4.14-4.087 4.14C7.833 30.676 6 28.82 6 26.536c0-2.283 1.833-4.142 4.088-4.142zm19.824 0c2.254 0 4.088 1.859 4.088 4.141 0 2.284-1.833 4.14-4.088 4.14-2.253 0-4.087-1.857-4.087-4.14 0-2.282 1.834-4.14 4.087-4.14zM24.969 10.27c.175-.321.573-.436.89-.26 3.93 2.205 6.32 6.401 6.24 10.953-.006.36-.299.65-.654.65h-.012c-.361-.007-.649-.31-.642-.676.072-4.059-2.06-7.8-5.566-9.766-.316-.177-.43-.58-.256-.901zm-10.827-.26c.317-.176.714-.06.889.26.175.32.06.724-.254.9-3.507 1.966-5.64 5.708-5.566 9.767.006.366-.282.669-.643.675h-.012c-.356 0-.648-.287-.655-.65-.081-4.552 2.31-8.748 6.24-10.951zM20 5c2.254 0 4.087 1.857 4.087 4.14 0 2.284-1.834 4.142-4.087 4.142-2.254 0-4.088-1.858-4.088-4.141C15.912 6.857 17.746 5 20 5z" transform="translate(-246 -2207) translate(0 2045) translate(101 150) translate(133) translate(12 12)"/>
                        </g>
                    </g>
                </g>
            </g>
        </g>
    </g>
</svg>
