<svg xmlns="http://www.w3.org/2000/svg" width="56" height="56" viewBox="0 0 56 56">
    <g fill="none" fill-rule="evenodd">
        <g fill="#000" fill-rule="nonzero">
            <g>
                <g>
                    <g>
                        <path d="M36.643 23.857h-3.929c-1.302 0-2.357 1.055-2.357 2.357h-1.571v-9.428c0-.434-.352-.786-.786-.786-.434 0-.786.352-.786.786v1.571h-1.571c0-1.302-1.055-2.357-2.357-2.357h-3.929C18.055 16 17 17.055 17 18.357v1.572c0 1.301 1.055 2.357 2.357 2.357h3.929c1.302 0 2.357-1.056 2.357-2.357h1.571V34.07h-1.571c0-1.301-1.055-2.357-2.357-2.357h-3.929c-1.302 0-2.357 1.056-2.357 2.357v1.572C17 36.945 18.055 38 19.357 38h3.929c1.302 0 2.357-1.055 2.357-2.357h1.571v1.571c0 .434.352.786.786.786.434 0 .786-.352.786-.786v-9.428h1.571c0 1.302 1.055 2.357 2.357 2.357h3.929c1.302 0 2.357-1.055 2.357-2.357v-1.572c0-1.302-1.055-2.357-2.357-2.357zM24.07 19.93c0 .434-.351.785-.785.785h-3.929c-.434 0-.786-.351-.786-.785v-1.572c0-.434.352-.786.786-.786h3.929c.434 0 .785.352.785.786v1.572zm0 15.714c0 .434-.351.786-.785.786h-3.929c-.434 0-.786-.352-.786-.786V34.07c0-.434.352-.785.786-.785h3.929c.434 0 .785.351.785.785v1.572zm13.358-7.857c0 .434-.352.785-.786.785h-3.929c-.434 0-.785-.351-.785-.785v-1.572c0-.434.351-.785.785-.785h3.929c.434 0 .786.351.786.785v1.572z" transform="translate(-440 -1744) translate(160 1090) translate(184 654) translate(96)"/>
                    </g>
                </g>
            </g>
        </g>
    </g>
</svg>
