<svg xmlns="http://www.w3.org/2000/svg" width="280" height="82" viewBox="0 0 280 82">
    <g fill="none" fill-rule="evenodd">
        <g fill-rule="nonzero">
            <g>
                <g>
                    <g>
                        <path fill="#FFF" d="M269.327 41.961L269.327 76.77 279.78 81.815 279.78 41.961zM34.141 42.96L34.141 4.131 44.963 0 44.963 42.96zM83.287 39.873c-.357-4.928-4.39-8.067-9.675-8.067-4.844 0-8.962 2.42-10.22 8.067h19.895zm11.555 7.613h-31.45c1.258 4.928 5.188 7.781 10.758 7.781 4.206-.017 8.21-1.809 11.024-4.934l6.808 6.9c-3.942 5.29-11.198 8.429-18.545 8.429-12.904 0-22.313-9.078-22.313-21.95 0-13.527 10.304-22.047 22.222-22.047 11.918 0 21.775 8.514 21.775 21.32-.007 1.187-.097 2.62-.279 4.5zM131.583 8.333c0-3.943 3.404-6.99 7.438-6.99 4.208 0 7.431 3.047 7.431 6.99 0 3.942-3.242 7.08-7.431 7.08-4.034 0-7.438-3.138-7.438-7.08zm13.352 14.428v41.844H133.19V31.897H116.17v32.708h-11.737V31.897h-7.886v-9.136h7.886v-3.048C104.433 7.165 110.885 0 122.803 0h2.776l-1.725 10.933c-5.836 0-7.704 3.132-7.704 7.522v4.306h28.785zM150.933 43.543c0-13.26 10.751-21.859 22.942-21.859 7.003-.112 13.609 3.242 17.65 8.962l-8.87 6.18c-2.097-2.666-5.304-4.219-8.696-4.209-6.627 0-11.108 4.837-11.108 10.926 0 6.09 4.481 11.205 11.108 11.205 3.393.009 6.6-1.546 8.696-4.214l8.87 6.186c-4.043 5.716-10.649 9.067-17.65 8.955-12.19 0-22.942-8.87-22.942-22.132zM196.72 0H208.457V64.605H196.72zM217.055 64.605V22.76h11.737v41.844h-11.737zm-1.608-56.272c0-3.943 3.404-6.99 7.431-6.99 4.124 0 7.438 3.047 7.438 6.99-.04 1.927-.849 3.759-2.245 5.088-1.397 1.33-3.266 2.047-5.193 1.993-4.027 0-7.431-3.139-7.431-7.081z" transform="translate(-580 -2451) translate(0 2045) translate(101 150) translate(479 256)"/>
                        <path fill="#FFF" d="M267.861 43.725c0-6.543-4.753-11.108-10.576-11.108s-10.57 4.54-10.57 11.108c0 6.569 4.747 11.023 10.57 11.023s10.576-4.571 10.576-11.023zm-33.07 0c0-13.26 10.575-22.047 22.487-22.047 11.912 0 22.495 8.78 22.495 22.047 0 13.267-10.576 21.95-22.495 21.95-11.918 0-22.481-8.78-22.481-21.95h-.007zM33.07 43.725c0-6.543-4.759-11.108-10.582-11.108s-10.57 4.54-10.57 11.108c0 6.569 4.747 11.023 10.57 11.023s10.583-4.571 10.583-11.023zm-33.07 0c0-13.26 10.576-22.047 22.488-22.047 11.912 0 22.495 8.8 22.495 22.047 0 13.248-10.576 21.95-22.495 21.95C10.57 65.675 0 56.895 0 43.725z" transform="translate(-580 -2451) translate(0 2045) translate(101 150) translate(479 256)"/>
                        <path fill="red" d="M5.324 58.36c18.059 13.397 19.252-22.695 39.36-10.79-2.023 12.32-13.111 16.393-13.111 16.393s-14.59 6.394-26.25-5.603z" transform="translate(-580 -2451) translate(0 2045) translate(101 150) translate(479 256)"/>
                    </g>
                </g>
            </g>
        </g>
    </g>
</svg>
